<svg width="0" height="0" fill="none" style="visibility: hidden; position: absolute;" aria-hidden="true">
	<symbol id="check" xmlns="http://www.w3.org/2000/svg" viewBox="2 2 22 22" fill="none" stroke="currentColor" stroke-width="5" stroke-linecap="round" stroke-linejoin="round">
		<path d="M5 12l5 5l10 -10"/>
	</symbol>
	<symbol id="plus" xmlns="http://www.w3.org/2000/svg" viewBox="0 0 24 24" fill="none" stroke="currentColor" stroke-width="2.25" stroke-linecap="round" stroke-linejoin="round" class="icon-tabler icons-tabler-outline icon-tabler-plus">
		<path stroke="none" d="M0 0h24v24H0z" fill="none"/>
		<path d="M12 6l0 12" />
		<path d="M6 12l12 0" />
	</symbol>
	<symbol id="refresh" xmlns="http://www.w3.org/2000/svg" viewBox="0 0 24 24" fill="none" stroke="currentColor" stroke-width="1.75" stroke-linecap="round" stroke-linejoin="round" class="icon-tabler icons-tabler-outline icon-tabler-refresh">
		<path stroke="none" d="M0 0h24v24H0z" fill="none"/>
		<path d="M20 11a8.1 8.1 0 0 0 -15.5 -2m-.5 -4v4h4" />
		<path d="M4 13a8.1 8.1 0 0 0 15.5 2m.5 4v-4h-4" />
	</symbol>
	<symbol id="alert-triangle" xmlns="http://www.w3.org/2000/svg" viewBox="0 0 24 24" fill="none" stroke="currentColor" stroke-width="1.75" stroke-linecap="round" stroke-linejoin="round" class="icon-tabler icons-tabler-outline icon-tabler-alert-triangle">
		<path stroke="none" d="M0 0h24v24H0z" fill="none" /><path d="M12 9v4" />
		<path d="M10.363 3.591l-8.106 13.534a1.914 1.914 0 0 0 1.636 2.871h16.214a1.914 1.914 0 0 0 1.636 -2.87l-8.106 -13.536a1.914 1.914 0 0 0 -3.274 0" />
		<path d="M12 16h.01" />
	</symbol>
	<symbol id="alert-filled" xmlns="http://www.w3.org/2000/svg" viewBox="0 0 24 24" fill="currentColor" class="icon-tabler icons-tabler-filled icon-tabler-alert-triangle">
		<path stroke="none" d="M0 0h24v24H0z" fill="none" />
		<path d="M12 1.67c.955 0 1.845 .467 2.39 1.247l.105 .16l8.114 13.548a2.914 2.914 0 0 1 -2.307 4.363l-.195 .008h-16.225a2.914 2.914 0 0 1 -2.582 -4.2l.099 -.185l8.11 -13.538a2.914 2.914 0 0 1 2.491 -1.403zm.01 13.33l-.127 .007a1 1 0 0 0 0 1.986l.117 .007l.127 -.007a1 1 0 0 0 0 -1.986l-.117 -.007zm-.01 -7a1 1 0 0 0 -.993 .883l-.007 .117v4l.007 .117a1 1 0 0 0 1.986 0l.007 -.117v-4l-.007 -.117a1 1 0 0 0 -.993 -.883z" />
	</symbol>
	<symbol id="browser-plus" xmlns="http://www.w3.org/2000/svg" viewBox="0 0 24 24" fill="none" stroke="currentColor" stroke-width="1.75" stroke-linecap="round" stroke-linejoin="round" class="icon-tabler icons-tabler-outline icon-tabler-browser-plus">
		<path stroke="none" d="M0 0h24v24H0z" fill="none"/>
		<path d="M4 8h16" />
		<path d="M12 20h-6a2 2 0 0 1 -2 -2v-12a2 2 0 0 1 2 -2h12a2 2 0 0 1 2 2v6" />
		<path d="M8 4v4" />
		<path d="M16 19h6" />
		<path d="M19 16v6" />
	</symbol>
	<symbol id="file-download" xmlns="http://www.w3.org/2000/svg" viewBox="0 0 24 24" fill="none" stroke="currentColor" stroke-width="1.75" stroke-linecap="round" stroke-linejoin="round" class="icon-tabler icons-tabler-outline icon-tabler-file-download">
		<path stroke="none" d="M0 0h24v24H0z" fill="none"/>
		<path d="M14 3v4a1 1 0 0 0 1 1h4" />
		<path d="M17 21h-10a2 2 0 0 1 -2 -2v-14a2 2 0 0 1 2 -2h7l5 5v11a2 2 0 0 1 -2 2z" />
		<path d="M12 17v-6" />
		<path d="M9.5 14.5l2.5 2.5l2.5 -2.5" />
	</symbol>
	<symbol id="file-upload" xmlns="http://www.w3.org/2000/svg" viewBox="0 0 24 24" fill="none" stroke="currentColor" stroke-width="1.75" stroke-linecap="round" stroke-linejoin="round" class="icon-tabler icons-tabler-outline icon-tabler-file-upload">
		<path stroke="none" d="M0 0h24v24H0z" fill="none"/>
		<path d="M14 3v4a1 1 0 0 0 1 1h4" />
		<path d="M17 21h-10a2 2 0 0 1 -2 -2v-14a2 2 0 0 1 2 -2h7l5 5v11a2 2 0 0 1 -2 2z" />
		<path d="M12 11v6" />
		<path d="M9.5 13.5l2.5 -2.5l2.5 2.5" />
	</symbol>
	<symbol id="file-export" xmlns="http://www.w3.org/2000/svg" viewBox="0 0 24 24" fill="none" stroke="currentColor" stroke-width="1.75" stroke-linecap="round" stroke-linejoin="round" class="icon-tabler icons-tabler-outline icon-tabler-file-export">
		<path stroke="none" d="M0 0h24v24H0z" fill="none"/>
		<path d="M14 3v4a1 1 0 0 0 1 1h4" />
		<path d="M11.5 21h-4.5a2 2 0 0 1 -2 -2v-14a2 2 0 0 1 2 -2h7l5 5v5m-5 6h7m-3 -3l3 3l-3 3" />
	</symbol>
	<symbol id="file-import" xmlns="http://www.w3.org/2000/svg" viewBox="0 0 24 24" fill="none" stroke="currentColor" stroke-width="1.75" stroke-linecap="round" stroke-linejoin="round" class="icon-tabler icons-tabler-outline icon-tabler-file-import">
		<path stroke="none" d="M0 0h24v24H0z" fill="none"/>
		<path d="M14 3v4a1 1 0 0 0 1 1h4" />
		<path d="M5 13v-8a2 2 0 0 1 2 -2h7l5 5v11a2 2 0 0 1 -2 2h-5.5m-9.5 -2h7m-3 -3l3 3l-3 3" />
	</symbol>
	<symbol id="table-export" xmlns="http://www.w3.org/2000/svg" viewBox="0 0 24 24" fill="none" stroke="currentColor" stroke-width="1.75" stroke-linecap="round" stroke-linejoin="round" class="icon-tabler icons-tabler-outline icon-tabler-table-export">
	<path stroke="none" d="M0 0h24v24H0z" fill="none"/>
		<path d="M12.5 21h-7.5a2 2 0 0 1 -2 -2v-14a2 2 0 0 1 2 -2h14a2 2 0 0 1 2 2v7.5" />
		<path d="M3 10h18" />
		<path d="M10 3v18" />
		<path d="M16 19h6" />
		<path d="M19 16l3 3l-3 3" />
	</symbol>
	<symbol id="table-download" xmlns="http://www.w3.org/2000/svg" viewBox="0 0 24 24" fill="none" stroke="currentColor" stroke-width="1.75" stroke-linecap="round" stroke-linejoin="round" class="icon-tabler icons-tabler-outline icon-tabler-table-down">
		<path stroke="none" d="M0 0h24v24H0z" fill="none"/>
		<path d="M12.5 21h-7.5a2 2 0 0 1 -2 -2v-14a2 2 0 0 1 2 -2h14a2 2 0 0 1 2 2v7.5" />
		<path d="M3 10h18" /><path d="M10 3v18" />
		<path d="M19 16v6" /><path d="M22 19l-3 3l-3 -3" />
	</symbol>
	<symbol id="filter-x" xmlns="http://www.w3.org/2000/svg" viewBox="0 0 24 24" fill="none" stroke="currentColor" stroke-width="1.75" stroke-linecap="round" stroke-linejoin="round" class="icon-tabler icons-tabler-outline icon-tabler-filter-x">
		<path stroke="none" d="M0 0h24v24H0z" fill="none"/>
		<path d="M13.758 19.414l-4.758 1.586v-8.5l-4.48 -4.928a2 2 0 0 1 -.52 -1.345v-2.227h16v2.172a2 2 0 0 1 -.586 1.414l-4.414 4.414v1.5" />
		<path d="M22 22l-5 -5" />
		<path d="M17 22l5 -5" />
	</symbol>
	<symbol id="printer" xmlns="http://www.w3.org/2000/svg" viewBox="0 0 24 24" fill="none" stroke="currentColor" stroke-width="1.75" stroke-linecap="round" stroke-linejoin="round" class="icon-tabler icons-tabler-outline icon-tabler-printer">
		<path stroke="none" d="M0 0h24v24H0z" fill="none"/>
		<path d="M17 17h2a2 2 0 0 0 2 -2v-4a2 2 0 0 0 -2 -2h-14a2 2 0 0 0 -2 2v4a2 2 0 0 0 2 2h2" />
		<path d="M17 9v-4a2 2 0 0 0 -2 -2h-6a2 2 0 0 0 -2 2v4" />
		<path d="M7 13m0 2a2 2 0 0 1 2 -2h6a2 2 0 0 1 2 2v4a2 2 0 0 1 -2 2h-6a2 2 0 0 1 -2 -2z" />
	</symbol>
	<symbol id="clipboard-copy" xmlns="http://www.w3.org/2000/svg" viewBox="0 0 24 24" fill="none" stroke="currentColor" stroke-width="1.75" stroke-linecap="round" stroke-linejoin="round" class="icon-tabler icons-tabler-outline icon-tabler-clipboard-copy">
		<path stroke="none" d="M0 0h24v24H0z" fill="none"/>
		<path d="M9 5h-2a2 2 0 0 0 -2 2v12a2 2 0 0 0 2 2h3m9 -9v-5a2 2 0 0 0 -2 -2h-2"/>
		<path d="M13 17v-1a1 1 0 0 1 1 -1h1m3 0h1a1 1 0 0 1 1 1v1m0 3v1a1 1 0 0 1 -1 1h-1m-3 0h-1a1 1 0 0 1 -1 -1v-1"/>
		<path d="M9 3m0 2a2 2 0 0 1 2 -2h2a2 2 0 0 1 2 2v0a2 2 0 0 1 -2 2h-2a2 2 0 0 1 -2 -2z"/>
	</symbol>
	<symbol id="file-csv" xmlns="http://www.w3.org/2000/svg" viewBox="0 0 24 24" fill="none" stroke="currentColor" stroke-width="1.75" stroke-linecap="round" stroke-linejoin="round" class="icon-tabler icons-tabler-outline icon-tabler-file-type-csv">
		<path stroke="none" d="M0 0h24v24H0z" fill="none"/>
		<path d="M14 3v4a1 1 0 0 0 1 1h4"/>
		<path d="M5 12v-7a2 2 0 0 1 2 -2h7l5 5v4"/>
		<path d="M7 16.5a1.5 1.5 0 0 0 -3 0v3a1.5 1.5 0 0 0 3 0"/>
		<path d="M10 20.25c0 .414 .336 .75 .75 .75h1.25a1 1 0 0 0 1 -1v-1a1 1 0 0 0 -1 -1h-1a1 1 0 0 1 -1 -1v-1a1 1 0 0 1 1 -1h1.25a.75 .75 0 0 1 .75 .75"/>
		<path d="M16 15l2 6l2 -6"/>
	</symbol>
	<symbol id="file-xls" xmlns="http://www.w3.org/2000/svg" viewBox="0 0 24 24" fill="none" stroke="currentColor" stroke-width="1.75" stroke-linecap="round" stroke-linejoin="round" class="icon-tabler icons-tabler-outline icon-tabler-file-type-xls">
		<path stroke="none" d="M0 0h24v24H0z" fill="none"/>
		<path d="M14 3v4a1 1 0 0 0 1 1h4"/>
		<path d="M5 12v-7a2 2 0 0 1 2 -2h7l5 5v4"/>
		<path d="M4 15l4 6"/>
		<path d="M4 21l4 -6"/>
		<path d="M17 20.25c0 .414 .336 .75 .75 .75h1.25a1 1 0 0 0 1 -1v-1a1 1 0 0 0 -1 -1h-1a1 1 0 0 1 -1 -1v-1a1 1 0 0 1 1 -1h1.25a.75 .75 0 0 1 .75 .75"/>
		<path d="M11 15v6h3"/>
	</symbol>
	<symbol id="file-type-sql" xmlns="http://www.w3.org/2000/svg" viewBox="0 0 24 24" fill="none" stroke="currentColor" stroke-width="1.75" stroke-linecap="round" stroke-linejoin="round" class="icon-tabler icons-tabler-outline icon-tabler-file-type-sql">
		<path stroke="none" d="M0 0h24v24H0z" fill="none"/>
		<path d="M14 3v4a1 1 0 0 0 1 1h4" />
		<path d="M14 3v4a1 1 0 0 0 1 1h4" />
		<path d="M5 20.25c0 .414 .336 .75 .75 .75h1.25a1 1 0 0 0 1 -1v-1a1 1 0 0 0 -1 -1h-1a1 1 0 0 1 -1 -1v-1a1 1 0 0 1 1 -1h1.25a.75 .75 0 0 1 .75 .75" />
		<path d="M5 12v-7a2 2 0 0 1 2 -2h7l5 5v4" />
		<path d="M18 15v6h2" />
		<path d="M13 15a2 2 0 0 1 2 2v2a2 2 0 1 1 -4 0v-2a2 2 0 0 1 2 -2z" />
		<path d="M14 20l1.5 1.5" />
	</symbol>
	<symbol id="file-type-txt" xmlns="http://www.w3.org/2000/svg" viewBox="0 0 24 24" fill="none" stroke="currentColor" stroke-width="1.75" stroke-linecap="round" stroke-linejoin="round" class="icon-tabler icons-tabler-outline icon-tabler-file-type-txt">
		<path stroke="none" d="M0 0h24v24H0z" fill="none"/>
		<path d="M14 3v4a1 1 0 0 0 1 1h4" />
		<path d="M14 3v4a1 1 0 0 0 1 1h4" />
		<path d="M16.5 15h3" />
		<path d="M5 12v-7a2 2 0 0 1 2 -2h7l5 5v4" />
		<path d="M4.5 15h3" />
		<path d="M6 15v6" />
		<path d="M18 15v6" />
		<path d="M10 15l4 6" />
		<path d="M10 21l4 -6" />
	</symbol>
	<symbol id="file-type-html" xmlns="http://www.w3.org/2000/svg" viewBox="0 0 24 24" fill="none" stroke="currentColor" stroke-width="1.75" stroke-linecap="round" stroke-linejoin="round" class="icon-tabler icons-tabler-outline icon-tabler-file-type-html">
		<path stroke="none" d="M0 0h24v24H0z" fill="none"/>
		<path d="M14 3v4a1 1 0 0 0 1 1h4" />
		<path d="M5 12v-7a2 2 0 0 1 2 -2h7l5 5v4" />
		<path d="M2 21v-6" />
		<path d="M5 15v6" />
		<path d="M2 18h3" />
		<path d="M20 15v6h2" />
		<path d="M13 21v-6l2 3l2 -3v6" />
		<path d="M7.5 15h3" />
		<path d="M9 15v6" />
	</symbol>
	<symbol id="file-type-pdf" xmlns="http://www.w3.org/2000/svg" viewBox="0 0 24 24" fill="none" stroke="currentColor" stroke-width="1.75" stroke-linecap="round" stroke-linejoin="round" class="icon-tabler icons-tabler-outline icon-tabler-file-type-pdf">
		<path stroke="none" d="M0 0h24v24H0z" fill="none"/>
		<path d="M14 3v4a1 1 0 0 0 1 1h4" />
		<path d="M5 12v-7a2 2 0 0 1 2 -2h7l5 5v4" />
		<path d="M5 18h1.5a1.5 1.5 0 0 0 0 -3h-1.5v6" />
		<path d="M17 18h2" />
		<path d="M20 15h-3v6" />
		<path d="M11 15v6h1a2 2 0 0 0 2 -2v-2a2 2 0 0 0 -2 -2h-1" />
	</symbol>
	<symbol id="file-type-json" xmlns="http://www.w3.org/2000/svg" viewBox="0 0 24 24" fill="none" stroke="currentColor" stroke-width="1.75" stroke-linecap="round" stroke-linejoin="round" class="icon-tabler icons-tabler-outline icon-tabler-file-type-json">
		<path stroke="none" d="M0 0h24v24h0z" fill="none"/>
		<path d="m 14,3 v 4 a 1,1 0 0 0 1,1 h 4"/>
		<path d="M 5,12 V 5 A 2,2 0 0 1 7,3 h 7 l 5,5 v 4"/>
		<path d="m 14.691595,14.936805 a 1.5,1.5 0 0 1 1.5,1.5 v 3 a 1.5,1.5 0 0 1 -3,0 v -3 a 1.5,1.5 0 0 1 1.5,-1.5 z"/>
		<path d="m 2.07911,14.936805 h 3 v 4.5 a 1.5,1.5 0 0 1 -3,0"/>
		<path d="m 7.6563659,20.186805 c 0,0.414 0.336,0.75 0.75,0.75 h 1.25 a 1,1 0 0 0 1.0000011,-1 v -1 a 1,1 0 0 0 -1.0000011,-1 h -1 a 1,1 0 0 1 -1,-1 v -1 a 1,1 0 0 1 1,-1 h 1.25 a 0.75,0.75 0 0 1 0.7500011,0.75"/>
		<path d="m 18.899877,20.936805 v -6 l 3,6 v -6"/>
	</symbol>
	<symbol id="open-json" xmlns="http://www.w3.org/2000/svg" viewBox="0 0 24 24" fill="none" stroke="currentColor" stroke-width="1.75" stroke-linecap="round" stroke-linejoin="round" class="icon-tabler icons-tabler-outline icon-tabler-open-json">
		<path stroke="none" d="M0 0h24v24h0z" fill="none"/>
		<path d="m 14.721261,16.420118 a 1.5,1.5 0 0 1 1.5,1.5 v 3 a 1.5,1.5 0 0 1 -3,0 v -3 a 1.5,1.5 0 0 1 1.5,-1.5 z"/>
		<path d="m 2.1087763,16.420118 h 3 v 4.5 a 1.5,1.5 0 0 1 -3,0"/>
		<path d="m 7.6860322,21.670118 c 0,0.414 0.336,0.75 0.75,0.75 h 1.25 a 1,1 0 0 0 1.0000008,-1 v -1 a 1,1 0 0 0 -1.0000008,-1 h -1 a 1,1 0 0 1 -1,-1 v -1 a 1,1 0 0 1 1,-1 h 1.25 a 0.75,0.75 0 0 1 0.7500008,0.75"/>
		<path d="m 18.929543,22.420118 v -6 l 3,6 v -6"/>
		<path d="M 5.524333,14.027486 8.1167491,7.9010637 A 0.94030329,0.83341355 0 0 1 8.996873,7.3601783 h 11.572312 a 0.94030329,0.83341355 0 0 1 0.927139,0.9700934 l -0.936542,4.3429173 a 1.8806066,1.6668271 0 0 1 -1.846755,1.354297 H 5.524333 A 1.8806066,1.6668271 0 0 1 3.6437264,12.360659 V 3.1931106 A 1.8806066,1.6668271 0 0 1 5.524333,1.5262834 h 3.7612131 l 2.8209099,2.5002407 h 6.582123 a 1.8806066,1.6668271 0 0 1 1.880606,1.6668271 v 1.6668271"/>
	</symbol>
	<symbol id="library" xmlns="http://www.w3.org/2000/svg" viewBox="0 0 24 24" fill="none" stroke="currentColor" stroke-width="1.75" stroke-linecap="round" stroke-linejoin="round" class="icon-tabler icons-tabler-outline icon-tabler-library">
		<path stroke="none" d="M0 0h24v24H0z" fill="none"/><path d="M7 3m0 2.667a2.667 2.667 0 0 1 2.667 -2.667h8.666a2.667 2.667 0 0 1 2.667 2.667v8.666a2.667 2.667 0 0 1 -2.667 2.667h-8.666a2.667 2.667 0 0 1 -2.667 -2.667z" />
		<path d="M4.012 7.26a2.005 2.005 0 0 0 -1.012 1.737v10c0 1.1 .9 2 2 2h10c.75 0 1.158 -.385 1.5 -1" />
		<path d="M11 7h5" /><path d="M11 10h6" />
		<path d="M11 13h3" />
	</symbol>
	<symbol id="source-code" xmlns="http://www.w3.org/2000/svg" viewBox="0 0 24 24" fill="none" stroke="currentColor" stroke-width="1.75" stroke-linecap="round" stroke-linejoin="round" class="icon-tabler icons-tabler-outline icon-tabler-source-code">
		<path stroke="none" d="M0 0h24v24H0z" fill="none"/>
		<path d="M14.5 4h2.5a3 3 0 0 1 3 3v10a3 3 0 0 1 -3 3h-10a3 3 0 0 1 -3 -3v-5" />
		<path d="M6 5l-2 2l2 2" />
		<path d="M10 9l2 -2l-2 -2" />
	</symbol>
	<symbol id="text-clear" xmlns="http://www.w3.org/2000/svg" viewBox="0 0 24 24" fill="none" stroke="currentColor" stroke-width="2" stroke-linecap="round" stroke-linejoin="round" class="icon-tabler icons-tabler-outline icon-tabler-input-x">
		<path stroke="none" d="M0 0h24v24H0z" fill="none"/>
		<path d="M20 13v-4a2 2 0 0 0 -2 -2h-12a2 2 0 0 0 -2 2v5a2 2 0 0 0 2 2h7"/>
		<path d="M22 22l-5 -5"/>
		<path d="M17 22l5 -5"/>
	</symbol>
	<symbol id="text-edit" xmlns="http://www.w3.org/2000/svg" viewBox="0 0 24 24" fill="none" stroke="currentColor" stroke-width="1.75" stroke-linecap="round" stroke-linejoin="round" class="icon-tabler icons-tabler-outline icon-tabler-file-pencil">
		<path stroke="none" d="M0 0h24v24H0z" fill="none"/>
		<path d="M14 3v4a1 1 0 0 0 1 1h4"/>
		<path d="M17 21h-10a2 2 0 0 1 -2 -2v-14a2 2 0 0 1 2 -2h7l5 5v11a2 2 0 0 1 -2 2z"/>
		<path d="M10 18l5 -5a1.414 1.414 0 0 0 -2 -2l-5 5v2h2z"/>
	</symbol>
	<symbol id="database-cog" xmlns="http://www.w3.org/2000/svg" viewBox="0 0 24 24" fill="none" stroke="currentColor" stroke-width="1.75" stroke-linecap="round" stroke-linejoin="round" class="icon-tabler icons-tabler-outline icon-tabler-database-cog">
		<path stroke="none" d="M0 0h24v24H0z" fill="none"/>
		<path d="M4 6c0 1.657 3.582 3 8 3s8 -1.343 8 -3s-3.582 -3 -8 -3s-8 1.343 -8 3" />
		<path d="M4 6v6c0 1.657 3.582 3 8 3c.21 0 .42 -.003 .626 -.01" />
		<path d="M20 11.5v-5.5" />
		<path d="M4 12v6c0 1.657 3.582 3 8 3" />
		<path d="M19.001 19m-2 0a2 2 0 1 0 4 0a2 2 0 1 0 -4 0" />
		<path d="M19.001 15.5v1.5" />
		<path d="M19.001 21v1.5" />
		<path d="M22.032 17.25l-1.299 .75" />
		<path d="M17.27 20l-1.3 .75" />
		<path d="M15.97 17.25l1.3 .75" />
		<path d="M20.733 20l1.3 .75" />
	</symbol>
	<symbol id="database-search" xmlns="http://www.w3.org/2000/svg" viewBox="0 0 24 24" fill="none" stroke="currentColor" stroke-width="1.75" stroke-linecap="round" stroke-linejoin="round" class="icon-tabler icons-tabler-outline icon-tabler-database-search">
		<path stroke="none" d="M0 0h24v24H0z" fill="none"/>
		<rect width="24" height="24" fill="transparent" stroke="none"/>
		<path d="M4 6c0 1.657 3.582 3 8 3s8 -1.343 8 -3s-3.582 -3 -8 -3s-8 1.343 -8 3"/>
		<path d="M4 6v6c0 1.657 3.582 3 8 3m8 -3.5v-5.5"/>
		<path d="M4 12v6c0 1.657 3.582 3 8 3"/>
		<path d="M18 18m-3 0a3 3 0 1 0 6 0a3 3 0 1 0 -6 0"/>
		<path d="M20.2 20.2l1.8 1.8"/>
	</symbol>
	<symbol id="floppy-disk" xmlns="http://www.w3.org/2000/svg" viewBox="0 0 24 24" fill="none" stroke="currentColor" stroke-width="1.75" stroke-linecap="round" stroke-linejoin="round" class="icon-tabler icons-tabler-outline icon-tabler-device-floppy">
		<path stroke="none" d="M0 0h24v24H0z" fill="none"/>
		<path d="M6 4h10l4 4v10a2 2 0 0 1 -2 2h-12a2 2 0 0 1 -2 -2v-12a2 2 0 0 1 2 -2"/>
		<path d="M12 14m-2 0a2 2 0 1 0 4 0a2 2 0 1 0 -4 0"/>
		<path d="M14 4l0 4l-6 0l0 -4"/>
	</symbol>
	<symbol id="folder-open" xmlns="http://www.w3.org/2000/svg" viewBox="0 0 24 24" fill="none" stroke="currentColor" stroke-width="2" stroke-linecap="round" stroke-linejoin="round" class="icon-tabler icons-tabler-outline icon-tabler-folder-open">
		<path stroke="none" d="M0 0h24v24H0z" fill="none"/>
		<path d="M5 19l2.757 -7.351a1 1 0 0 1 .936 -.649h12.307a1 1 0 0 1 .986 1.164l-.996 5.211a2 2 0 0 1 -1.964 1.625h-14.026a2 2 0 0 1 -2 -2v-11a2 2 0 0 1 2 -2h4l3 3h7a2 2 0 0 1 2 2v2"/>
	</symbol>
	<symbol id="folder-close" xmlns="http://www.w3.org/2000/svg" viewBox="0 0 24 24" fill="none" stroke="currentColor" stroke-width="1.75" stroke-linecap="round" stroke-linejoin="round" class="icon-tabler icons-tabler-outline icon-tabler-folder">
		<path stroke="none" d="M0 0h24v24H0z" fill="none"/>
		<path d="M5 4h4l3 3h7a2 2 0 0 1 2 2v8a2 2 0 0 1 -2 2h-14a2 2 0 0 1 -2 -2v-11a2 2 0 0 1 2 -2"/>
	</symbol>
	<symbol id="down-right" xmlns="http://www.w3.org/2000/svg" viewBox="0 0 24 24" fill="none" stroke="currentColor" stroke-width="1.75" stroke-linecap="round" stroke-linejoin="round" class="icon-tabler icons-tabler-outline icon-tabler-corner-down-right">
		<path stroke="none" d="M0 0h24v24H0z" fill="none"/>
		<path d="m19.5 15.75l3.5-3.5l-3.5-3.5"/><path d="M23 12h-6a4 4 0 0 1-4-4v-7"/>
		<!-- <path d="M10 2v6a3 3 0 0 0 3 3h10l-4 -4m0 8l4 -4"/> -->
	</symbol>
	<symbol id="file-code" xmlns="http://www.w3.org/2000/svg" viewBox="0 0 24 24" fill="none" stroke="currentColor" stroke-width="1.75" stroke-linecap="round" stroke-linejoin="round" class="icon-tabler icons-tabler-outline icon-tabler-file-code">
		<path stroke="none" d="M0 0h24v24H0z" fill="none"/>
		<path d="M14 3v4a1 1 0 0 0 1 1h4" />
		<path d="M17 21h-10a2 2 0 0 1 -2 -2v-14a2 2 0 0 1 2 -2h7l5 5v11a2 2 0 0 1 -2 2z" />
		<path d="m 10.625,11.875 a 1.1311437,0.70862485 0 0 0 -1.1311433,0.708625 v 1.062936 a 1.1311437,1.0629372 0 0 1 -1.1311438,1.062937 1.1311437,1.0629372 0 0 1 1.1311438,1.062939 v 1.062936 A 1.1311437,0.70862485 0 0 0 10.625,17.543999" />
		<path d="m 13.375,11.875 a 1.131143,0.70858375 0 0 1 1.131143,0.708584 v 1.062875 a 1.131143,1.0628755 0 0 0 1.131144,1.062876 1.131143,1.0628755 0 0 0 -1.131144,1.062875 v 1.062876 A 1.131143,0.70858375 0 0 1 13.375,17.543671" />
	</symbol>
	<symbol id="file-query" xmlns="http://www.w3.org/2000/svg" viewBox="0 0 24 24" fill="none" stroke="currentColor" stroke-width="1.75" stroke-linecap="round" stroke-linejoin="round" class="icon-tabler icons-tabler-outline icon-tabler-file-query">
		<path stroke="none" d="M0 0h24v24H0z" fill="none"/>
		<path d="M14 3v4a1 1 0 0 0 1 1h4" />
		<path d="M17 21h-10a2 2 0 0 1 -2 -2v-14a2 2 0 0 1 2 -2h7l5 5v11a2 2 0 0 1 -2 2" />
		<path d="m 8.6,13.5 a 2.5,2.5 0 1 0 5,0 2.5,2.5 0 1 0 -5,0" />
		<path d="m 13,15.5 2.5,2.5" />
	</symbol>
	<symbol id="file-script" xmlns="http://www.w3.org/2000/svg" viewBox="0 0 24 24" fill="none" stroke="currentColor" stroke-width="1.75" stroke-linecap="round" stroke-linejoin="round" class="icon-tabler icons-tabler-outline icon-tabler-file-script">
		<path stroke="none" d="M0 0h24v24H0z" fill="none"/>
		<path d="M14 3v4a1 1 0 0 0 1 1h4" />
		<path d="M17 21h-10a2 2 0 0 1 -2 -2v-14a2 2 0 0 1 2 -2h7l5 5v11a2 2 0 0 1 -2 2z" />
		<path d="M9 9l1 0" /><path d="M9 13l6 0" />
		<path d="M9 17l6 0" />
	</symbol>
	<symbol id="file-text" xmlns="http://www.w3.org/2000/svg" viewBox="0 0 24 24" fill="none" stroke="currentColor" stroke-width="1.75"  stroke-linecap="round" stroke-linejoin="round" class="icon-tabler icons-tabler-outline icon-tabler-file-text">
		<path stroke="none" d="M0 0h24v24H0z" fill="none" />
		<path d="M14 3v4a1 1 0 0 0 1 1h4" />
		<path d="M5 11v-6a2 2 0 0 1 2 -2h7l5 5v11a2 2 0 0 1 -2 2h-2.5" />
		<path d="m 9,7.375 h 1" />
		<path d="m 9,11.375 h 6" />
		<path d="M 7.324707,14.136474 H 5.8217773 v 4.940186 q 0,0.426758 -0.1901855,0.635498 -0.1901856,0.204102 -0.4916992,0.204102 -0.3061524,0 -0.5009766,-0.208741 Q 4.4487304,19.498779 4.4487304,19.07666 V 14.136474 H 2.9458008 q -0.3525391,0 -0.52417,-0.153076 Q 2.25,13.825683 2.25,13.570556 2.25,13.306152 2.4262695,13.153076 2.6071777,13 2.9458008,13 H 7.324707 q 0.3571777,0 0.5288086,0.157715 0.1762695,0.157715 0.1762695,0.412841 0,0.255127 -0.1762695,0.412842 -0.1762695,0.153076 -0.5288086,0.153076 z" style="fill:currentColor;stroke:none;stroke-width:1.4" />
		<path d="M 9.5639649,19.427737 8.7421875,18.219974 7.8996582,19.427737 q -0.1826172,0.253174 -0.3112793,0.361084 -0.1245117,0.10791 -0.31958,0.10791 -0.2158204,0 -0.3693848,-0.132812 Q 6.75,19.626956 6.75,19.45264 q 0,-0.178467 0.2324219,-0.510499 L 8.0075684,17.472903 7.0986328,16.248538 q -0.2365722,-0.302979 -0.2365722,-0.5271 0,-0.174316 0.1411133,-0.302978 0.1411132,-0.128662 0.3693847,-0.128662 0.1992188,0 0.3278809,0.11206 0.1328125,0.112061 0.3071289,0.352783 l 0.7346191,1.004395 0.7138672,-1.004395 q 0.1784668,-0.249023 0.3071289,-0.356933 0.1328125,-0.10791 0.3278814,-0.10791 0.224121,0 0.369385,0.128662 0.149414,0.124512 0.149414,0.302978 0,0.128662 -0.06226,0.249024 -0.05811,0.116211 -0.182617,0.278076 l -0.9089363,1.224365 1.0251473,1.469238 q 0.240723,0.344483 0.240723,0.518799 0,0.178467 -0.149414,0.307129 -0.149414,0.128662 -0.369385,0.128662 -0.195069,0 -0.3320322,-0.11206 Q 9.7382773,19.67261 9.5639609,19.427737 Z m 2.0336921,-4.03833 h 0.124512 v -0.680664 q 0,-0.273926 0.01245,-0.42749 0.0166,-0.157715 0.08301,-0.269776 0.06641,-0.116211 0.190918,-0.186767 0.124511,-0.07471 0.278076,-0.07471 0.21582,0 0.390137,0.161865 0.116211,0.10791 0.145263,0.265625 0.0332,0.153564 0.0332,0.439941 v 0.771973 h 0.415039 q 0.240723,0 0.365235,0.116211 0.128662,0.112061 0.128662,0.290527 0,0.228272 -0.182617,0.31958 -0.178467,0.09131 -0.514649,0.09131 h -0.21167 v 2.083496 q 0,0.265625 0.0166,0.410889 0.02075,0.141113 0.09961,0.232422 0.08301,0.08716 0.265625,0.08716 0.09961,0 0.269776,-0.0332 0.170166,-0.03735 0.265625,-0.03735 0.136963,0 0.244873,0.112061 0.11206,0.10791 0.11206,0.269775 0,0.273926 -0.298828,0.41919 -0.298828,0.145263 -0.859131,0.145263 -0.53125,0 -0.805175,-0.178466 -0.273926,-0.178467 -0.361084,-0.493897 -0.08301,-0.31543 -0.08301,-0.842529 V 16.207041 H 11.57275 q -0.244873,0 -0.373535,-0.116211 -0.128663,-0.116211 -0.128663,-0.294678 0,-0.178466 0.132813,-0.290527 0.136963,-0.116211 0.394287,-0.116211 z" style="fill:currentColor;stroke:none;stroke-width:1.4" />
	</symbol>
	<symbol id="file-pdf" xmlns="http://www.w3.org/2000/svg" viewBox="0 0 24 24" fill="none" stroke="currentColor" stroke-width="1.75"  stroke-linecap="round" stroke-linejoin="round" class="icon-tabler icons-tabler-outline icon-tabler-file-pdf">
		<path stroke="none" d="M0 0h24v24H0z" fill="none" />
		<path d="M14 3v4a1 1 0 0 0 1 1h4" />
		<path d="M5 11v-6a2 2 0 0 1 2 -2h7l5 5v11a2 2 0 0 1 -2 2h-2.5" />
		<path fill="currentColor" d="m 2.0369039,20.962817 c -0.856829,-0.883398 0.070406,-2.098899 2.5837707,-3.387464 L 6.2014907,16.765019 6.8178761,15.376824 C 7.1566224,14.612983 7.6614208,13.364271 7.9403883,12.600432 L 8.4485075,11.218878 8.0984699,10.195998 C 7.6680629,8.9406435 7.5146307,7.0476496 7.7876204,6.3635148 8.1575845,5.4402651 9.3684362,5.5398964 9.8466663,6.5242532 10.221279,7.294735 10.182755,8.6895727 9.7390645,10.456367 L 9.3750783,11.897699 9.695891,12.45962 c 0.1766794,0.308858 0.690776,1.042807 1.142438,1.62731 l 0.850187,1.095944 1.062733,-0.142805 c 3.367538,-0.452989 4.52326,0.317493 4.52326,1.421406 0,1.394838 -2.64355,1.507754 -4.862006,-0.09963 -0.499484,-0.361993 -0.843545,-0.723987 -0.843545,-0.723987 0,0 -1.388195,0.292252 -2.0789717,0.48288 -0.7040609,0.196606 -1.0627334,0.319484 -2.0922563,0.677493 0,0 -0.363322,0.544651 -0.5997801,0.943176 -0.8833973,1.474542 -1.9062782,2.690044 -2.6435496,3.135063 -0.8236184,0.497493 -1.6870895,0.531367 -2.1188249,0.08302 z m 1.3417009,-0.4955 C 3.860156,20.160453 4.8332213,18.972848 5.510714,17.870261 L 5.7837035,17.423914 4.5416338,18.06886 c -1.9195624,0.996313 -2.7963174,1.932847 -2.3446558,2.504066 0.2563844,0.31882 0.5632488,0.292251 1.182291,-0.101623 z M 15.865723,16.854023 c 0.470924,-0.340075 0.40251,-1.022881 -0.12952,-1.301849 -0.414467,-0.215203 -0.750556,-0.259042 -1.826574,-0.2431 -0.661552,0.04649 -1.726942,0.183986 -1.906278,0.225831 0,0 0.583839,0.416458 0.843545,0.569891 0.345389,0.203248 1.182291,0.581182 1.793362,0.777124 0.60443,0.190628 0.956461,0.170702 1.215502,-0.02457 z M 10.850949,14.701988 C 10.566004,14.39313 10.080467,13.745527 9.7749317,13.267297 9.3730856,12.723975 9.1718305,12.337406 9.1718305,12.337406 c 0,0 -0.2935801,0.976385 -0.5346878,1.56089 l -0.7505553,1.919561 -0.2178603,0.435058 c 0,0 1.1557224,-0.391884 1.7468679,-0.550629 0.624355,-0.168044 1.892994,-0.425093 1.892994,-0.425093 L 10.852942,14.701324 Z M 9.2369229,7.9934823 C 9.3093216,7.3644769 9.3405394,6.7381283 9.144598,6.4193084 8.6012754,5.806244 7.9423809,6.3176844 8.0552964,7.7742935 8.0924921,8.2644793 8.2107209,9.1027104 8.3688025,9.6207929 L 8.6557405,10.557327 8.8576599,9.8532663 C 8.9685827,9.4640397 9.1392843,8.6311224 9.2362587,7.9934823 Z"  style="stroke:currentColor;stroke-width:0.5;stroke-dasharray:none" />
	</symbol>
	<symbol id="file-html" xmlns="http://www.w3.org/2000/svg" viewBox="0 0 24 24" fill="none" stroke="currentColor" stroke-width="1.75"  stroke-linecap="round" stroke-linejoin="round" class="icon-tabler icons-tabler-outline icon-tabler-file-html">
		<path stroke="none" d="M0 0h24v24H0z" fill="none" />
		<path d="M14 3v4a1 1 0 0 0 1 1h4" />
		<path d="M5 11v-6a2 2 0 0 1 2 -2h7l5 5v11a2 2 0 0 1 -2 2h-2.5" />
		<g style="stroke-width:1.25;stroke-dasharray:none">
			<path d="m 3.6250023,15.452095 a 6.5779978,6.5770945 0 1 0 13.1559957,0 6.5779978,6.5770945 0 0 0 -13.1559957,0" />
			<path d="M 4.0635355,13.25973 H 16.342465" />
			<path d="M 4.0635355,17.64446 H 16.342465" />
			<path d="m 9.8375553,8.8750023 a 12.425106,12.4234 0 0 0 0,13.1541867" />
			<path d="m 10.568444,8.8750023 a 12.425106,12.4234 0 0 1 0,13.1541867" />
		</g>
	</symbol>
	<symbol id="file-link" xmlns="http://www.w3.org/2000/svg" viewBox="0 0 24 24" fill="none" stroke="currentColor" stroke-width="1.75"  stroke-linecap="round" stroke-linejoin="round" class="icon-tabler icons-tabler-outline icon-tabler-file-link">
		<path stroke="none" d="M0 0h24v24H0z" fill="none" />
		<path d="M14 3v4a1 1 0 0 0 1 1h4" />
		<path d="M5 11v-6a2 2 0 0 1 2 -2h7l5 5v11a2 2 0 0 1 -2 2h-2.5" />
		<path d="m 10.494827,9.1 v 3.038039 c -4.9937753,0.780775 -6.850776,5.15555 -7.5950953,9.114113 -0.028102,0.15646 4.0891991,-4.528195 7.5950953,-4.557056 v 3.038037 L 16.570903,14.416567 10.494827,9.1" style="stroke-width:1.2;stroke-dasharray:none" />
	</symbol>
	<symbol id="file-unknown" xmlns="http://www.w3.org/2000/svg" viewBox="0 0 24 24" fill="none" stroke="currentColor" stroke-width="1.75" stroke-linecap="round" stroke-linejoin="round" class="icon-tabler icons-tabler-outline icon-tabler-file-unknown">
		<path stroke="none" d="M0 0h24v24H0z" fill="none" />
		<path d="M14 3v4a1 1 0 0 0 1 1h4" />
		<path d="M17 21h-10a2 2 0 0 1 -2 -2v-14a2 2 0 0 1 2 -2h7l5 5v11a2 2 0 0 1 -2 2" />
		<path d="M12 17v.01" />
		<path d="M12 14a1.5 1.5 0 1 0 -1.14 -2.474" />
	</symbol>
	<symbol id="text" xmlns="http://www.w3.org/2000/svg" viewBox="0 0 24 24" fill="none" stroke="currentColor" stroke-width="1.75" stroke-linecap="round" stroke-linejoin="round" class="icon-tabler icons-tabler-outline icon-tabler-text">
		<path stroke="none" d="M0 0h24v24H0z" fill="none" />
		<path d="M 6,15 H 21" />
		<path d="M 21,19 H 6" />
		<path d="m 15,11 h 6" />
		<path d="M 21,7 H 15" />
		<path d="M 7,11.5 V 5.5 a 2,2 0 1 1 4,0 v 6" />
		<path d="M 7,8.5 H 11" />
	</symbol>
	<symbol id="acrobat" xmlns="http://www.w3.org/2000/svg" viewBox="0 0 24 24">
		<path fill="currentColor" stroke-width="0.819379" stroke="currentColor" style="stroke-width:0.819;stroke-dasharray:none" d="M 2.7938472,21.20645 C 1.7368433,20.116683 2.8807015,18.617228 5.9812466,17.027643 L 7.9313779,16.028006 8.6917652,14.315512 C 9.1096506,13.373234 9.7323816,11.83281 10.076522,10.890531 L 10.70335,9.186232 10.271535,7.9243959 C 9.7405754,6.3757786 9.5512978,4.0405622 9.8880641,3.1966069 10.344461,2.0576768 11.838197,2.1805829 12.428151,3.3948954 c 0.462133,0.9504741 0.414608,2.6711598 -0.13274,4.850695 l -0.449022,1.7780416 0.395763,0.693191 c 0.217955,0.381009 0.852159,1.286418 1.409338,2.007466 l 1.048811,1.351969 1.311012,-0.176167 c 4.154272,-0.558812 5.579997,0.391661 5.579997,1.753461 0,1.720686 -3.261144,1.85998 -5.997883,-0.122906 -0.616175,-0.44656 -1.040616,-0.893119 -1.040616,-0.893119 0,0 -1.71251,0.360525 -2.564669,0.595685 -0.868546,0.242536 -1.311012,0.394119 -2.5810556,0.835763 0,0 -0.4482023,0.671886 -0.7399027,1.163511 -1.0897792,1.81901 -2.3516288,3.318465 -3.2611438,3.867446 -1.0160348,0.613711 -2.0812326,0.655499 -2.6138315,0.102422 z m 1.6551534,-0.611253 c 0.5940527,-0.37855 1.7944486,-1.843591 2.6302191,-3.203752 l 0.3367664,-0.55062 -1.532246,0.795612 c -2.3680167,1.229062 -3.4496019,2.384378 -2.8924216,3.08904 0.3162818,0.393301 0.6948367,0.360526 1.4585015,-0.125363 z M 19.853399,16.137802 c 0.580943,-0.41952 0.496546,-1.261836 -0.15978,-1.605974 -0.511294,-0.265475 -0.925902,-0.319555 -2.253302,-0.299891 -0.816106,0.05735 -2.130395,0.226967 -2.351629,0.278587 0,0 0.720237,0.513748 1.040616,0.703023 0.42608,0.250728 1.458502,0.716954 2.212335,0.958668 0.745637,0.235162 1.17991,0.21058 1.49947,-0.03032 z m -6.18634,-2.654772 c -0.351516,-0.381009 -0.950485,-1.179898 -1.327401,-1.769849 -0.495727,-0.670248 -0.744,-1.147123 -0.744,-1.147123 0,0 -0.362167,1.204479 -0.659603,1.925529 l -0.925902,2.367991 -0.2687586,0.536689 c 0,0 1.4257266,-0.48343 2.1549766,-0.67926 0.770221,-0.207302 2.335242,-0.524398 2.335242,-0.524398 l -0.562096,-0.710398 z m -1.9911,-8.275679 c 0.08931,-0.7759475 0.127822,-1.5486172 -0.113894,-1.9419167 -0.670257,-0.7562824 -1.483084,-0.1253644 -1.343789,1.6715231 0.04588,0.6046984 0.191735,1.6387485 0.386748,2.2778604 L 10.958998,8.3701353 11.20809,7.5015988 C 11.344927,7.0214455 11.555509,5.9939502 11.67514,5.207351 Z" />
	</symbol>
	<symbol id="html" xmlns="http://www.w3.org/2000/svg" viewBox="0 0 24 24" fill="none" stroke="currentColor" stroke-width="1.75" stroke-linecap="round" stroke-linejoin="round" class="icon-tabler icons-tabler-outline icon-tabler-html">
		<path stroke="none" d="M0 0h24v24H0z" fill="none" />
		<path d="M3 12a9 9 0 1 0 18 0a9 9 0 0 0 -18 0" />
		<path d="M3.6 9h16.8" />
		<path d="M3.6 15h16.8" />
		<path d="M11.5 3a17 17 0 0 0 0 18" />
		<path d="M12.5 3a17 17 0 0 1 0 18" />
	</symbol>
	<symbol id="url-link" xmlns="http://www.w3.org/2000/svg" viewBox="0 0 24 24" class="icon-tabler icons-tabler-outline icon-tabler-url-link">
		<path stroke="none" d="M0 0h24v24H0z" fill="none" />
		<path d="m 12.474609,2.25 a 0.75,0.75 0 0 0 -0.371093,0.1132813 0.75,0.75 0 0 0 -0.240235,1.0332031 c 1.096473,1.7570609 1.82661,3.6706965 2.191407,5.6367187 0.670729,0.5021753 1.257482,1.1107619 1.734375,1.8007809 C 15.600699,7.9666627 14.716772,5.1354986 13.136719,2.6035156 A 0.75,0.75 0 0 0 12.474609,2.25 Z m -0.949218,0 a 0.75,0.75 0 0 0 -0.66211,0.3535156 C 9.8955917,4.1542066 9.1898295,5.8164162 8.7441406,7.53125 8.9766815,7.5099971 9.2112448,7.5 9.4492188,7.5 9.7346247,7.5 10.015518,7.5164505 10.292969,7.546875 10.680528,6.1868886 11.250164,4.8646792 12,3.6191406 11.955078,3.5445196 11.909505,3.4705567 11.863281,3.3964844 A 0.75,0.75 0 0 1 12,2.4433594 0.75,0.75 0 0 0 11.896484,2.3632813 0.75,0.75 0 0 0 11.525391,2.25 Z m 5.566406,12 c 0.03848,0.311124 0.05859,0.627918 0.05859,0.949219 0,0.185166 -0.0066,0.368834 -0.01953,0.550781 h 3.269532 a 0.75,0.75 0 0 0 0.75,-0.75 0.75,0.75 0 0 0 -0.75,-0.75 z m -13.4921876,-6 a 0.75,0.75 0 0 0 -0.75,0.75 0.75,0.75 0 0 0 0.75,0.75 H 4.015625 C 4.6293405,9.137971 5.3465991,8.6285356 6.1367187,8.25 Z m 9.1621096,0 C 13.21957,8.4689167 13.652095,8.7317824 14.054688,9.0332031 14.006059,8.7711291 13.950286,8.5099784 13.888672,8.25 Z m 2.666015,0 c 0.107269,0.4968905 0.191747,0.9973694 0.25586,1.5 h 4.716797 a 0.75,0.75 0 0 0 0.75,-0.75 0.75,0.75 0 0 0 -0.75,-0.75 z M 12,2.25 c -0.130697,0 -0.261161,0.00269 -0.390625,0.00781 A 0.75,0.75 0 0 1 11.896484,2.3632813 0.75,0.75 0 0 1 12,2.4433594 0.75,0.75 0 0 1 12.103516,2.3632813 0.75,0.75 0 0 1 12.390625,2.2578125 C 12.261161,2.2526903 12.130697,2.25 12,2.25 Z M 11.310547,2.273437 C 6.2555096,2.6287846 2.25,6.8561843 2.25,12 c 0,0.148598 0.00315,0.296363 0.00977,0.443359 C 2.6519494,11.423958 3.255263,10.508273 4.015625,9.75 H 3.5996094 a 0.75,0.75 0 0 1 -0.75,-0.75 0.75,0.75 0 0 1 0.75,-0.75 h 1.046875 C 5.7306214,6.1228122 7.7095325,4.5322174 10.091797,3.9707031 10.327222,3.5066703 10.584388,3.0504324 10.863281,2.6035156 A 0.75,0.75 0 0 1 11.310547,2.273437 Z m 1.378906,0 a 0.75,0.75 0 0 1 0.447266,0.3300781 c 0.278873,0.4468863 0.535941,0.9031088 0.771484,1.367188 C 16.290389,4.532254 18.269405,6.1228642 19.353516,8.25 h 1.046875 a 0.75,0.75 0 0 1 0.75,0.75 0.75,0.75 0 0 1 -0.75,0.75 H 19.941406 C 20.142749,10.464932 20.25,11.219602 20.25,12 c 0,0.780398 -0.107251,1.535068 -0.308594,2.25 h 0.458985 a 0.75,0.75 0 0 1 0.75,0.75 0.75,0.75 0 0 1 -0.75,0.75 h -1.046875 c -0.743284,1.458398 -1.907723,2.663727 -3.333985,3.458984 -0.582478,0.950378 -1.363414,1.766096 -2.287109,2.386719 C 18.285349,20.776267 21.75,16.785152 21.75,12 21.75,6.8561843 17.74449,2.6287846 12.689453,2.273437 Z M 12,3.6191406 C 11.97372,3.6627866 11.94771,3.7061666 11.92187,3.75 c 0.02603,-2.4e-4 0.05204,0 0.07813,0 0.02608,0 0.0521,-2.4e-4 0.07813,0 C 12.052296,3.7061685 12.026276,3.6627881 12,3.6191406 Z" style="baseline-shift:baseline;display:inline;overflow:visible;opacity:1;vector-effect:none;fill:currentColor;stroke:none;stroke-linecap:butt;stroke-linejoin:miter;enable-background:accumulate;stop-color:currentColor;stop-opacity:1" />
		<path d="m 9.4492188,8.9003906 c -3.4876855,0 -6.2988283,2.8111434 -6.2988282,6.2988284 0,3.487685 2.811143,6.300781 6.2988282,6.300781 C 12.936904,21.5 15.75,18.686904 15.75,15.199219 15.75,11.711533 12.936904,8.9003905 9.4492188,8.9003906 Z M 6.8261719,11.701172 h 5.2500001 l 0.06445,0.0039 0.111328,0.01367 0.09766,0.02734 0.0957,0.03711 0.08594,0.04687 0.08398,0.05859 0.07813,0.07031 a 0.88375105,0.88375105 0 0 1 0.08594,0.09766 l 0.0625,0.0957 0.04687,0.09961 0.03125,0.0918 0.02344,0.130859 0.0059,0.101563 v 5.25 a 0.87500104,0.87500104 0 0 1 -1.742188,0.103516 l -0.0059,-0.103516 V 14.689453 L 7.4433594,18.445312 A 0.87500104,0.87500104 0 0 1 6.1347656,17.291016 l 0.072266,-0.08203 3.7539063,-3.757812 H 6.8261719 A 0.87500104,0.87500104 0 0 1 5.9570312,12.679688 l -0.00586,-0.103516 a 0.87500104,0.87500104 0 0 1 0.7714843,-0.867188 z" style="baseline-shift:baseline;display:inline;overflow:visible;vector-effect:none;fill:currentColor;stroke:none;stroke-linecap:butt;stroke-linejoin:miter;enable-background:accumulate;stop-color:currentColor;stop-opacity:1" />
		<path d="M 9.4492188,7.5 C 5.2049172,7.5 1.7499999,10.954917 1.75,15.199219 c 0,4.244301 3.4549173,7.701172 7.6992188,7.701172 4.2443012,0 7.7011722,-3.456871 7.7011722,-7.701172 0,-4.244302 -3.456871,-7.6992191 -7.7011722,-7.699219 z m 0,1.4003906 C 12.936904,8.9003905 15.75,11.711533 15.75,15.199219 15.75,18.686904 12.936904,21.5 9.4492188,21.5 c -3.4876852,0 -6.2988282,-2.813096 -6.2988282,-6.300781 -1e-7,-3.487685 2.8111428,-6.2988284 6.2988282,-6.2988284 z" style="baseline-shift:baseline;display:inline;overflow:visible;vector-effect:none;fill:none;stroke:none;stroke-linecap:butt;stroke-linejoin:miter;enable-background:accumulate;stop-color:currentColor;stop-opacity:1" />
	</symbol>
	<symbol id="trash" xmlns="http://www.w3.org/2000/svg" viewBox="0 0 24 24" fill="none" stroke="currentColor" stroke-width="1.75" stroke-linecap="round" stroke-linejoin="round" class="icon-tabler icons-tabler-outline icon-tabler-trash">
		<path stroke="none" d="M0 0h24v24H0z" fill="none"/>
		<path d="M4 7l16 0" />
		<path d="M10 11l0 6" />
		<path d="M14 11l0 6" />
		<path d="M5 7l1 12a2 2 0 0 0 2 2h8a2 2 0 0 0 2 -2l1 -12" />
		<path d="M9 7v-3a1 1 0 0 1 1 -1h4a1 1 0 0 1 1 1v3" />
	</symbol>
	<symbol id="trash-x" xmlns="http://www.w3.org/2000/svg" viewBox="0 0 24 24" fill="none" stroke="currentColor" stroke-width="1.75" stroke-linecap="round" stroke-linejoin="round" class="icon-tabler icons-tabler-outline icon-tabler-trash-x">
		<path stroke="none" d="M0 0h24v24H0z" fill="none"/>
		<path d="M4 7h16" />
		<path d="M5 7l1 12a2 2 0 0 0 2 2h8a2 2 0 0 0 2 -2l1 -12" />
		<path d="M9 7v-3a1 1 0 0 1 1 -1h4a1 1 0 0 1 1 1v3" />
		<path d="M10 12l4 4m0 -4l-4 4" />
	</symbol>
	<symbol id="square-plus" xmlns="http://www.w3.org/2000/svg" viewBox="0 0 24 24" fill="none" stroke="currentColor" stroke-width="1.75" stroke-linecap="round" stroke-linejoin="round" class="icon-tabler icons-tabler-outline icon-tabler-square-plus">
		<path stroke="none" d="M0 0h24v24H0z" fill="none"/>
		<path d="M9 12h6" />
		<path d="M12 9v6" />
		<path d="M3 5a2 2 0 0 1 2 -2h14a2 2 0 0 1 2 2v14a2 2 0 0 1 -2 2h-14a2 2 0 0 1 -2 -2v-14z" />
	</symbol>
	<symbol id="square-arrow-up" xmlns="http://www.w3.org/2000/svg" viewBox="0 0 24 24" fill="none" stroke="currentColor" stroke-width="1.75" stroke-linecap="round" stroke-linejoin="round" class="icon-tabler icons-tabler-outline icon-tabler-square-arrow-up">
		<path stroke="none" d="M0 0h24v24H0z" fill="none"/>
		<path d="M16 12l-4 -4l-4 4" /><path d="M12 16v-8" />
		<path d="M3 3m0 2a2 2 0 0 1 2 -2h14a2 2 0 0 1 2 2v14a2 2 0 0 1 -2 2h-14a2 2 0 0 1 -2 -2z" />
	</symbol>
	<symbol id="square-arrow-down" xmlns="http://www.w3.org/2000/svg" viewBox="0 0 24 24" fill="none" stroke="currentColor" stroke-width="1.75" stroke-linecap="round" stroke-linejoin="round" class="icon-tabler icons-tabler-outline icon-tabler-square-arrow-down">
		<path stroke="none" d="M0 0h24v24H0z" fill="none"/>
		<path d="M8 12l4 4l4 -4" />
		<path d="M12 8v8" />
		<path d="M3 3m0 2a2 2 0 0 1 2 -2h14a2 2 0 0 1 2 2v14a2 2 0 0 1 -2 2h-14a2 2 0 0 1 -2 -2z" />
	</symbol>
	<symbol id="arrow-up" xmlns="http://www.w3.org/2000/svg" width="24" height="24" viewBox="0 0 24 24" fill="none" stroke="currentColor" stroke-width="2" stroke-linecap="round" stroke-linejoin="round" class="icon-tabler icons-tabler-outline icon-tabler-arrow-narrow-up">
		<path stroke="none" d="M0 0h24v24H0z" fill="none"/>
		<path d="M12 5l0 14" />
		<path d="M16 9l-4 -4" />
		<path d="M8 9l4 -4" />
	</symbol>
	<symbol id="arrow-down" xmlns="http://www.w3.org/2000/svg" viewBox="0 0 24 24" fill="none" stroke="currentColor" stroke-width="2" stroke-linecap="round" stroke-linejoin="round" class="icon-tabler icons-tabler-outline icon-tabler-arrow-narrow-down">
		<path stroke="none" d="M0 0h24v24H0z" fill="none"/>
		<path d="M12 5l0 14" />
		<path d="M16 15l-4 4" />
		<path d="M8 15l4 4" />
	</symbol>
	<symbol id="chevrons-up" xmlns="http://www.w3.org/2000/svg" viewBox="0 0 24 24" fill="none" stroke="currentColor" stroke-width="2" stroke-linecap="round" stroke-linejoin="round" class="icon-tabler icons-tabler-outline icon-tabler-chevrons-up">
		<path stroke="none" d="M0 0h24v24H0z" fill="none"/>
		<path d="M7 11l5 -5l5 5" />
		<path d="M7 17l5 -5l5 5" />
	</symbol>
	<symbol id="chevrons-down" xmlns="http://www.w3.org/2000/svg" viewBox="0 0 24 24" fill="none" stroke="currentColor" stroke-width="2" stroke-linecap="round" stroke-linejoin="round" class="icon-tabler icons-tabler-outline icon-tabler-chevrons-down">
		<path stroke="none" d="M0 0h24v24H0z" fill="none"/>
		<path d="M7 7l5 5l5 -5" />
		<path d="M7 13l5 5l5 -5" />
	</symbol>
	<symbol id="code-plus" xmlns="http://www.w3.org/2000/svg" viewBox="0 0 24 24" fill="none" stroke="currentColor" stroke-width="1.75" stroke-linecap="round" stroke-linejoin="round" class="icon-tabler icons-tabler-outline icon-tabler-code-plus">
		<path stroke="none" d="M0 0h24v24H0z" fill="none"/>
		<path d="M9 12h6" />
		<path d="M12 9v6" />
		<path d="M6 19a2 2 0 0 1 -2 -2v-4l-1 -1l1 -1v-4a2 2 0 0 1 2 -2" />
		<path d="M18 19a2 2 0 0 0 2 -2v-4l1 -1l-1 -1v-4a2 2 0 0 0 -2 -2" />
	</symbol>
	<symbol id="code-minus" xmlns="http://www.w3.org/2000/svg" viewBox="0 0 24 24" fill="none" stroke="currentColor" stroke-width="1.75" stroke-linecap="round" stroke-linejoin="round" class="icon-tabler icons-tabler-outline icon-tabler-code-minus">
		<path stroke="none" d="M0 0h24v24H0z" fill="none"/>
		<path d="M9 12h6" />
		<path d="M6 19a2 2 0 0 1 -2 -2v-4l-1 -1l1 -1v-4a2 2 0 0 1 2 -2" />
		<path d="M18 19a2 2 0 0 0 2 -2v-4l1 -1l-1 -1v-4a2 2 0 0 0 -2 -2" />
	</symbol>
	<symbol id="code-dots" xmlns="http://www.w3.org/2000/svg" viewBox="0 0 24 24" fill="none" stroke="currentColor" stroke-width="1.75" stroke-linecap="round" stroke-linejoin="round" class="icon-tabler icons-tabler-outline icon-tabler-code-dots">
		<path stroke="none" d="M0 0h24v24H0z" fill="none"/>
		<path d="M15 12h.01" />
		<path d="M12 12h.01" />
		<path d="M9 12h.01" />
		<path d="M6 19a2 2 0 0 1 -2 -2v-4l-1 -1l1 -1v-4a2 2 0 0 1 2 -2" />
		<path d="M18 19a2 2 0 0 0 2 -2v-4l1 -1l-1 -1v-4a2 2 0 0 0 -2 -2" />
	</symbol>
</svg>
